<svg xmlns="http://www.w3.org/2000/svg" viewBox="0 0 1200 675" role="img" aria-labelledby="title desc">
  <title id="title">AI hjälper till att skriva nyheter på Rossö.nu</title>
  <desc id="desc">Humoristisk illustration av en avslappnad IT-tekniker med fötterna på bordet som pratar med en vänlig AI-assistent på en datorskärm.</desc>
  <defs>
    <linearGradient id="bg" x1="0" y1="0" x2="1" y2="1">
      <stop offset="0" stop-color="#e8f5f7"/>
      <stop offset="1" stop-color="#f7ead7"/>
    </linearGradient>
    <linearGradient id="screen" x1="0" y1="0" x2="1" y2="1">
      <stop offset="0" stop-color="#174457"/>
      <stop offset="1" stop-color="#2f6f87"/>
    </linearGradient>
  </defs>
  <rect width="1200" height="675" fill="url(#bg)"/>
  <circle cx="105" cy="105" r="62" fill="#dff1f4" opacity=".8"/>
  <circle cx="1110" cy="90" r="78" fill="#f6efe2" opacity=".9"/>

  <!-- anslagstavla -->
  <rect x="60" y="55" width="350" height="190" rx="20" fill="#b9865c"/>
  <rect x="85" y="82" width="90" height="65" rx="5" fill="#fff" transform="rotate(-4 130 115)"/>
  <rect x="205" y="78" width="110" height="76" rx="5" fill="#fff" transform="rotate(5 260 116)"/>
  <rect x="110" y="175" width="75" height="42" rx="5" fill="#ffd9e4"/>
  <path d="M135 192c8-13 23-4 23 6 0-10 15-19 23-6 8 14-23 28-23 28s-31-14-23-28z" fill="#d53b1d"/>
  <rect x="260" y="175" width="105" height="45" rx="5" fill="#bfe4ec"/>

  <!-- skrivbord -->
  <path d="M80 495h1040l-60 145H140z" fill="#b77b45"/>
  <path d="M130 505h930" stroke="#915d31" stroke-width="10" stroke-linecap="round" opacity=".45"/>

  <!-- skärm -->
  <rect x="660" y="110" width="455" height="330" rx="28" fill="#20272b"/>
  <rect x="680" y="130" width="415" height="285" rx="20" fill="url(#screen)"/>
  <rect x="835" y="440" width="105" height="35" rx="8" fill="#343d42"/>
  <rect x="780" y="470" width="215" height="18" rx="9" fill="#343d42"/>
  <text x="715" y="175" fill="#fff" font-family="system-ui, sans-serif" font-size="28" font-weight="700">AI-nyhetshjälpen</text>
  <rect x="715" y="205" width="165" height="62" rx="28" fill="#fff" opacity=".94"/>
  <circle cx="755" cy="236" r="7" fill="#8da9b4"/>
  <circle cx="780" cy="236" r="7" fill="#8da9b4"/>
  <circle cx="805" cy="236" r="7" fill="#8da9b4"/>
  <rect x="715" y="285" width="190" height="58" rx="26" fill="#70d5ea" opacity=".95"/>
  <circle cx="755" cy="314" r="7" fill="#fff"/>
  <circle cx="780" cy="314" r="7" fill="#fff"/>
  <circle cx="805" cy="314" r="7" fill="#fff"/>

  <!-- AI-robot -->
  <circle cx="992" cy="275" r="78" fill="#f7fbfc"/>
  <rect x="936" y="230" width="112" height="88" rx="38" fill="#102c39"/>
  <circle cx="970" cy="270" r="10" fill="#71e7ff"/>
  <circle cx="1015" cy="270" r="10" fill="#71e7ff"/>
  <path d="M970 294q23 18 45 0" fill="none" stroke="#71e7ff" stroke-width="7" stroke-linecap="round"/>
  <line x1="992" y1="198" x2="992" y2="177" stroke="#f7fbfc" stroke-width="8" stroke-linecap="round"/>
  <circle cx="992" cy="168" r="10" fill="#71e7ff"/>
  <path d="M1042 325q43 5 48-37" fill="none" stroke="#f7fbfc" stroke-width="19" stroke-linecap="round"/>
  <circle cx="1090" cy="284" r="13" fill="#f7fbfc"/>
  <path d="M1090 276v-24M1090 252l-10 12M1090 252l10 12" stroke="#174457" stroke-width="5" stroke-linecap="round"/>

  <!-- tekniker/kropp -->
  <ellipse cx="345" cy="390" rx="155" ry="128" fill="#2f6f87"/>
  <circle cx="330" cy="270" r="72" fill="#f0b07a"/>
  <path d="M270 255q20-90 120-50 33 13 26 62-22-32-64-29-50 5-82 17z" fill="#5b321f"/>
  <rect x="276" y="252" width="50" height="29" rx="12" fill="none" stroke="#20272b" stroke-width="8"/>
  <rect x="344" y="252" width="50" height="29" rx="12" fill="none" stroke="#20272b" stroke-width="8"/>
  <line x1="326" y1="265" x2="344" y2="265" stroke="#20272b" stroke-width="7"/>
  <path d="M312 305q22 15 46 0" fill="none" stroke="#7b3e2a" stroke-width="6" stroke-linecap="round"/>
  <path d="M250 350q-50 48-65 120" fill="none" stroke="#2f6f87" stroke-width="45" stroke-linecap="round"/>
  <path d="M425 345q38 15 73 63" fill="none" stroke="#2f6f87" stroke-width="45" stroke-linecap="round"/>
  <path d="M250 310q-32-45 17-83" fill="none" stroke="#2f6f87" stroke-width="30" stroke-linecap="round"/>

  <!-- ben/fötter på bordet -->
  <path d="M315 455q70 48 150 87" fill="none" stroke="#244b60" stroke-width="58" stroke-linecap="round"/>
  <path d="M370 445q92 33 185 72" fill="none" stroke="#244b60" stroke-width="58" stroke-linecap="round"/>
  <ellipse cx="510" cy="535" rx="75" ry="34" fill="#32383c" transform="rotate(13 510 535)"/>
  <ellipse cx="600" cy="522" rx="75" ry="34" fill="#32383c" transform="rotate(9 600 522)"/>
  <path d="M468 532h78M558 520h78" stroke="#6d7478" stroke-width="8" stroke-linecap="round"/>

  <!-- kaffemugg -->
  <rect x="495" y="382" width="65" height="76" rx="12" fill="#fff"/>
  <path d="M560 400q34 0 28 28-4 22-28 18" fill="none" stroke="#fff" stroke-width="13"/>
  <circle cx="517" cy="415" r="4" fill="#20272b"/>
  <circle cx="537" cy="415" r="4" fill="#20272b"/>
  <path d="M514 433q14 10 28 0" fill="none" stroke="#20272b" stroke-width="4" stroke-linecap="round"/>
  <path d="M515 374q-13-19 4-34M538 374q-13-19 4-34" fill="none" stroke="#fff" stroke-width="5" stroke-linecap="round" opacity=".8"/>

  <!-- tangentbord/mus -->
  <rect x="705" y="520" width="270" height="58" rx="12" fill="#2d3539" transform="skewX(-8)"/>
  <g stroke="#5d686d" stroke-width="4">
    <path d="M720 538h225M715 554h225"/>
  </g>
  <ellipse cx="1010" cy="555" rx="35" ry="22" fill="#2d3539"/>

  <!-- block -->
  <rect x="925" y="580" width="190" height="72" rx="10" fill="#fff9e8" transform="rotate(-4 1020 616)"/>
  <text x="950" y="612" fill="#174457" font-family="system-ui, sans-serif" font-size="20" font-weight="700">NYHETSIDÉER</text>
  <path d="M950 628h115" stroke="#9e8f75" stroke-width="4"/>

  <!-- pratbubbla från teknikern -->
  <rect x="420" y="170" width="220" height="88" rx="32" fill="#fff" stroke="#d9e7ea" stroke-width="4"/>
  <path d="M505 258l-25 30 58-30" fill="#fff" stroke="#d9e7ea" stroke-width="4"/>
  <text x="455" y="205" fill="#174457" font-family="system-ui, sans-serif" font-size="21" font-weight="700">Kan du fixa</text>
  <text x="455" y="233" fill="#174457" font-family="system-ui, sans-serif" font-size="21" font-weight="700">en nyhet också?</text>
</svg>